<?xml version="1.0" encoding="UTF-8"?>
<svg width="256" height="256" viewBox="0 0 256 256" xmlns="http://www.w3.org/2000/svg">
  <defs>
    <!-- Fluent Design 2 渐变定义 -->
    <linearGradient id="backgroundGradient" x1="0%" y1="0%" x2="100%" y2="100%">
      <stop offset="0%" style="stop-color:#0078D4;stop-opacity:1" />
      <stop offset="50%" style="stop-color:#106EBE;stop-opacity:1" />
      <stop offset="100%" style="stop-color:#005A9E;stop-opacity:1" />
    </linearGradient>

    <linearGradient id="frameGradient" x1="0%" y1="0%" x2="100%" y2="100%">
      <stop offset="0%" style="stop-color:#FFFFFF;stop-opacity:0.9" />
      <stop offset="100%" style="stop-color:#FFFFFF;stop-opacity:0.6" />
    </linearGradient>

    <linearGradient id="imageGradient" x1="0%" y1="0%" x2="100%" y2="100%">
      <stop offset="0%" style="stop-color:#FF6B35;stop-opacity:1" />
      <stop offset="30%" style="stop-color:#F7931E;stop-opacity:1" />
      <stop offset="70%" style="stop-color:#FFD23F;stop-opacity:1" />
      <stop offset="100%" style="stop-color:#06FFA5;stop-opacity:1" />
    </linearGradient>

    <!-- 阴影滤镜 -->
    <filter id="shadow" x="-50%" y="-50%" width="200%" height="200%">
      <feDropShadow dx="0" dy="4" stdDeviation="8" flood-color="#000000" flood-opacity="0.15"/>
    </filter>

    <!-- 内阴影滤镜 -->
    <filter id="innerShadow" x="-50%" y="-50%" width="200%" height="200%">
      <feDropShadow dx="0" dy="2" stdDeviation="4" flood-color="#000000" flood-opacity="0.1"/>
    </filter>
  </defs>

  <!-- 背景圆形 - 已移除，使用透明背景 -->

  <!-- 主框架 - 模拟相框/显示器 -->
  <rect x="16" y="32" width="224" height="192" rx="20" ry="20"
        fill="url(#frameGradient)"
        stroke="#FFFFFF"
        stroke-width="4"
        filter="url(#innerShadow)"/>

  <!-- 图像内容区域 -->
  <rect x="24" y="40" width="208" height="176" rx="16" ry="16"
        fill="url(#imageGradient)"/>

  <!-- 装饰性几何图形 - 代表壁纸的多样性 -->
  <!-- 圆形装饰 -->
  <circle cx="100" cy="100" r="20" fill="#FFFFFF" opacity="0.8"/>
  <circle cx="200" cy="120" r="16" fill="#FFFFFF" opacity="0.6"/>
  <circle cx="160" cy="140" r="14" fill="#FFFFFF" opacity="0.7"/>
  <circle cx="80" cy="160" r="12" fill="#FFFFFF" opacity="0.5"/>
  <circle cx="140" cy="80" r="10" fill="#FFFFFF" opacity="0.6"/>

  <!-- 三角形装饰 -->
  <polygon points="220,60 230,80 210,80" fill="#FFFFFF" opacity="0.5"/>
  <polygon points="40,100 50,120 30,120" fill="#FFFFFF" opacity="0.6"/>
  <polygon points="180,200 190,220 170,220" fill="#FFFFFF" opacity="0.4"/>
  <polygon points="60,200 70,220 50,220" fill="#FFFFFF" opacity="0.5"/>

  <!-- 矩形装饰 -->
  <rect x="180" y="160" width="28" height="20" rx="4" fill="#FFFFFF" opacity="0.4"/>
  <rect x="120" y="180" width="24" height="16" rx="3" fill="#FFFFFF" opacity="0.5"/>
  <rect x="40" y="60" width="20" height="14" rx="3" fill="#FFFFFF" opacity="0.6"/>
  <rect x="200" y="200" width="16" height="12" rx="2" fill="#FFFFFF" opacity="0.4"/>

  <!-- 下载和搜索图标已移除 -->

  <!-- 高光效果 -->
  <ellipse cx="100" cy="100" rx="80" ry="40"
           fill="#FFFFFF"
           opacity="0.2"
           transform="rotate(-15 100 100)"/>
</svg>
